<svg width="25" height="28" viewBox="0 0 25 28" fill="none" xmlns="http://www.w3.org/2000/svg">
<path fill-rule="evenodd" clip-rule="evenodd" d="M0.219422 23.4425C0.106812 23.1645 0.0519928 22.8598 0.025309 22.4553C0.00874751 22.3831 -1.48968e-06 22.308 -1.48293e-06 22.2308L-4.28933e-08 5.75868C-1.3324e-05 4.95372 -2.28012e-05 4.28936 0.0441934 3.74818C0.0901186 3.18608 0.188683 2.66938 0.435974 2.18404C0.819468 1.43139 1.43139 0.819469 2.18404 0.435975C2.66937 0.188686 3.18608 0.0901214 3.74818 0.0441963C4.28935 -1.97975e-05 4.95367 -1.02013e-05 5.75859 1.31317e-06L17.8385 2.36924e-06C18.3656 -1.47508e-05 18.8205 -2.99693e-05 19.195 0.0305735C19.5904 0.0628745 19.9836 0.13419 20.362 0.326983C20.9265 0.614604 21.3854 1.07355 21.673 1.63803C21.8658 2.01641 21.9371 2.40963 21.9694 2.80498C22 3.17955 22 3.63431 22 4.16146L22 6C22 6.55229 21.5523 7 21 7C20.4477 7 20 6.55229 20 6L20 4.2C20 3.62345 19.9992 3.25118 19.9761 2.96784C19.9539 2.69618 19.9162 2.59546 19.891 2.54601C19.7951 2.35785 19.6422 2.20487 19.454 2.109C19.4045 2.0838 19.3038 2.04613 19.0322 2.02393C18.7488 2.00078 18.3766 2 17.8 2L6.75136 2L11.5634 3.4255C12.7961 3.79069 13.4125 3.97328 13.8696 4.33754C14.2731 4.65909 14.5869 5.07926 14.7806 5.55748C15 6.09922 15 6.74208 15 8.0278L15 22.5719C15 23.339 15 23.9711 14.9802 24.5L18.5 24.5C19.0523 24.5 19.5 24.0523 19.5 23.5L19.5 22C19.5 21.4477 19.9477 21 20.5 21C21.0523 21 21.5 21.4477 21.5 22L21.5 23.5C21.5 25.1569 20.1569 26.5 18.5 26.5L14.5871 26.5C14.5737 26.5237 14.5598 26.547 14.5455 26.57C14.1475 27.2082 13.5242 27.6737 12.7991 27.874C11.9714 28.1028 10.9264 27.7933 8.83662 27.1742L3.43663 25.5745C2.20386 25.2093 1.58748 25.0267 1.13037 24.6625C0.726868 24.3409 0.413115 23.9207 0.219422 23.4425ZM5.59531 3.74345L10.9953 5.34312C12.3979 5.75863 12.5449 5.83927 12.6232 5.90165C12.7577 6.00884 12.8623 6.14889 12.9269 6.3083C12.9644 6.40108 13 6.56492 13 8.0278L13 22.5719C13 23.6989 12.9981 24.4109 12.9511 24.9371C12.9135 25.3578 12.8574 25.4928 12.8476 25.5131C12.7152 25.7246 12.5085 25.8789 12.2681 25.9458C12.2458 25.9495 12.1004 25.965 11.6863 25.8815C11.1685 25.7771 10.4853 25.5767 9.40469 25.2566L4.0047 23.6569C2.60207 23.2414 2.45507 23.1607 2.37679 23.0984C2.24229 22.9912 2.1377 22.8511 2.07314 22.6917C2.03556 22.5989 2 22.4351 2 20.9722L2 6.42812C2 5.30109 2.00188 4.58907 2.04888 4.06294C2.08647 3.64214 2.14257 3.50718 2.15243 3.4869C2.28484 3.27541 2.49154 3.12107 2.73192 3.05418C2.75418 3.05049 2.89951 3.03504 3.31365 3.11852C3.83146 3.22289 4.51468 3.42333 5.59531 3.74345ZM2.72878 3.05482L2.73192 3.05418C2.7299 3.05452 2.72874 3.05479 2.72878 3.05482ZM2.15393 3.48407C2.15392 3.48403 2.15332 3.48506 2.15243 3.4869L2.15393 3.48407ZM12.2712 25.9452L12.2681 25.9458C12.2701 25.9455 12.2713 25.9452 12.2712 25.9452ZM12.8461 25.5159C12.8461 25.516 12.8467 25.5149 12.8476 25.5131L12.8461 25.5159Z" fill="white"/>
<path d="M21.7071 10.2929C21.3166 9.90237 20.6834 9.90237 20.2929 10.2929C19.9024 10.6834 19.9024 11.3166 20.2929 11.7071L21.5858 13L18 13C17.4477 13 17 13.4477 17 14C17 14.5523 17.4477 15 18 15L21.5858 15L20.2929 16.2929C19.9024 16.6834 19.9024 17.3166 20.2929 17.7071C20.6834 18.0976 21.3166 18.0976 21.7071 17.7071L24.7071 14.7071C25.0976 14.3166 25.0976 13.6834 24.7071 13.2929L21.7071 10.2929Z" fill="white"/>
</svg>
