<svg width="68" height="39" viewBox="0 0 68 39" fill="none" xmlns="http://www.w3.org/2000/svg">
<g clip-path="url(#clip0_327_653)">
<g filter="url(#filter0_d_327_653)">
<path d="M17.4391 33.7834C25.5461 33.7834 32.1181 27.2773 32.1181 19.2516C32.1181 11.2259 25.5461 4.71973 17.4391 4.71973C9.33213 4.71973 2.76013 11.2259 2.76013 19.2516C2.76013 27.2773 9.33213 33.7834 17.4391 33.7834Z" fill="#F9F9F9"/>
</g>
<g filter="url(#filter1_d_327_653)">
<path d="M11.424 24.6877C10.5996 24.6877 9.87161 24.6083 9.23997 24.4493C8.61901 24.2903 8.09443 23.9988 7.66618 23.5749C7.24864 23.1509 6.93281 22.5468 6.7187 21.7625C6.51527 20.9782 6.41357 19.9554 6.41357 18.6942C6.41357 17.4435 6.52064 16.426 6.73476 15.6417C6.94887 14.8468 7.2647 14.2374 7.68224 13.8135C8.09977 13.3895 8.61901 13.098 9.23997 12.9391C9.87161 12.7695 10.5996 12.6847 11.424 12.6847C12.2591 12.6847 12.9871 12.7695 13.608 12.9391C14.2397 13.098 14.7643 13.3895 15.1818 13.8135C15.5993 14.2374 15.9098 14.8468 16.1132 15.6417C16.3273 16.426 16.4344 17.4435 16.4344 18.6942C16.4344 19.9554 16.3273 20.9782 16.1132 21.7625C15.9098 22.5468 15.594 23.1509 15.1658 23.5749C14.7482 23.9988 14.229 24.2903 13.608 24.4493C12.9871 24.6083 12.2591 24.6877 11.424 24.6877ZM11.424 22.2235C11.8629 22.2235 12.2269 22.1759 12.516 22.0805C12.8051 21.9745 13.0299 21.7996 13.1905 21.5558C13.3618 21.3015 13.4796 20.9464 13.5438 20.4907C13.6187 20.0243 13.6562 19.4255 13.6562 18.6942C13.6562 17.9417 13.6187 17.3322 13.5438 16.8659C13.4796 16.3996 13.3618 16.0445 13.1905 15.8007C13.0299 15.5463 12.8051 15.3768 12.516 15.292C12.2269 15.1966 11.8629 15.1489 11.424 15.1489C10.9957 15.1489 10.6371 15.1966 10.348 15.292C10.059 15.3768 9.8288 15.5463 9.6575 15.8007C9.49691 16.0445 9.37915 16.3996 9.3042 16.8659C9.22925 17.3322 9.19179 17.9417 9.19179 18.6942C9.19179 19.4255 9.22391 20.0243 9.28814 20.4907C9.36309 20.9464 9.48085 21.3015 9.64144 21.5558C9.81275 21.7996 10.0429 21.9745 10.332 22.0805C10.621 22.1759 10.9851 22.2235 11.424 22.2235ZM19.1179 24.5924V12.796H21.318L25.8789 19.9342V12.796H28.6571V24.5924H26.441L21.8801 17.47V24.5924H19.1179Z" fill="#FF7517"/>
<path d="M31.5462 24.5924V12.796H36.3639C37.6057 12.796 38.4998 13.0716 39.0458 13.6227C39.6026 14.1739 39.8808 14.9423 39.8808 15.9279C39.8808 16.3837 39.8166 16.7864 39.6881 17.1362C39.5597 17.486 39.3722 17.7774 39.1261 18.0106C38.8905 18.2332 38.5961 18.3869 38.2428 18.4716C38.4998 18.5352 38.7514 18.6412 38.9976 18.7896C39.2438 18.9274 39.458 19.1182 39.64 19.3619C39.8327 19.6057 39.9825 19.8919 40.0896 20.2204C40.1968 20.549 40.2502 20.9252 40.2502 21.3492C40.2502 22.1335 40.1109 22.7641 39.8327 23.2411C39.5649 23.718 39.1582 24.0625 38.6122 24.2744C38.0662 24.4864 37.3917 24.5924 36.5887 24.5924H31.5462ZM34.3244 22.1282H36.5084C36.7441 22.1282 36.942 22.0805 37.1026 21.9851C37.274 21.8897 37.4025 21.7519 37.488 21.5718C37.5736 21.381 37.6165 21.1425 37.6165 20.8564C37.6165 20.602 37.5683 20.3847 37.472 20.2045C37.3864 20.0244 37.2632 19.8866 37.1026 19.7912C36.942 19.6852 36.7441 19.6322 36.5084 19.6322H34.3244V22.1282ZM34.3244 17.5495H36.3639C36.6422 17.5495 36.8565 17.4436 37.0063 17.2316C37.1669 17.009 37.2472 16.7335 37.2472 16.4049C37.2472 15.9703 37.1561 15.6736 36.9742 15.5146C36.7922 15.345 36.5835 15.2602 36.3479 15.2602H34.3244V17.5495ZM42.0124 24.5924L45.6418 12.796H49.1105L52.7399 24.5924H49.8653L49.2551 22.4462H45.4651L44.8709 24.5924H42.0124ZM46.1075 19.982H48.6127L47.3601 15.1489L46.1075 19.982ZM54.9633 24.5924V12.796H57.1636L61.7244 19.9343V12.796H64.5026V24.5924H62.2862L57.7257 17.4701V24.5924H54.9633Z" fill="#F9F9F9"/>
</g>
</g>
<defs>
<filter id="filter0_d_327_653" x="-1.23987" y="4.71973" width="37.3579" height="37.0637" filterUnits="userSpaceOnUse" color-interpolation-filters="sRGB">
<feFlood flood-opacity="0" result="BackgroundImageFix"/>
<feColorMatrix in="SourceAlpha" type="matrix" values="0 0 0 0 0 0 0 0 0 0 0 0 0 0 0 0 0 0 127 0" result="hardAlpha"/>
<feOffset dy="4"/>
<feGaussianBlur stdDeviation="2"/>
<feComposite in2="hardAlpha" operator="out"/>
<feColorMatrix type="matrix" values="0 0 0 0 0 0 0 0 0 0 0 0 0 0 0 0 0 0 0.25 0"/>
<feBlend mode="normal" in2="BackgroundImageFix" result="effect1_dropShadow_327_653"/>
<feBlend mode="normal" in="SourceGraphic" in2="effect1_dropShadow_327_653" result="shape"/>
</filter>
<filter id="filter1_d_327_653" x="2.41357" y="12.6847" width="66.0891" height="20.0031" filterUnits="userSpaceOnUse" color-interpolation-filters="sRGB">
<feFlood flood-opacity="0" result="BackgroundImageFix"/>
<feColorMatrix in="SourceAlpha" type="matrix" values="0 0 0 0 0 0 0 0 0 0 0 0 0 0 0 0 0 0 127 0" result="hardAlpha"/>
<feOffset dy="4"/>
<feGaussianBlur stdDeviation="2"/>
<feComposite in2="hardAlpha" operator="out"/>
<feColorMatrix type="matrix" values="0 0 0 0 0 0 0 0 0 0 0 0 0 0 0 0 0 0 0.25 0"/>
<feBlend mode="normal" in2="BackgroundImageFix" result="effect1_dropShadow_327_653"/>
<feBlend mode="normal" in="SourceGraphic" in2="effect1_dropShadow_327_653" result="shape"/>
</filter>
<clipPath id="clip0_327_653">
<rect width="68" height="39" fill="white"/>
</clipPath>
</defs>
</svg>
