<svg width="38" height="51" viewBox="0 0 38 51" fill="none" xmlns="http://www.w3.org/2000/svg">
<g clip-path="url(#clip0_116_379)">
<path d="M6.33333 0C2.8401 0 0 2.85879 0 6.375V44.625C0 48.1412 2.8401 51 6.33333 51H31.6667C35.1599 51 38 48.1412 38 44.625V15.9375H25.3333C23.5818 15.9375 22.1667 14.5131 22.1667 12.75V0H6.33333ZM25.3333 0V12.75H38L25.3333 0ZM11.0833 25.5H26.9167C27.7875 25.5 28.5 26.2172 28.5 27.0938C28.5 27.9703 27.7875 28.6875 26.9167 28.6875H11.0833C10.2125 28.6875 9.5 27.9703 9.5 27.0938C9.5 26.2172 10.2125 25.5 11.0833 25.5ZM11.0833 31.875H26.9167C27.7875 31.875 28.5 32.5922 28.5 33.4688C28.5 34.3453 27.7875 35.0625 26.9167 35.0625H11.0833C10.2125 35.0625 9.5 34.3453 9.5 33.4688C9.5 32.5922 10.2125 31.875 11.0833 31.875ZM11.0833 38.25H26.9167C27.7875 38.25 28.5 38.9672 28.5 39.8438C28.5 40.7203 27.7875 41.4375 26.9167 41.4375H11.0833C10.2125 41.4375 9.5 40.7203 9.5 39.8438C9.5 38.9672 10.2125 38.25 11.0833 38.25Z" fill="#7C87AA"/>
</g>
<defs>
<clipPath id="clip0_116_379">
<rect width="38" height="51" fill="white"/>
</clipPath>
</defs>
</svg>
