<svg width="28" height="26" viewBox="0 0 28 26" fill="none" xmlns="http://www.w3.org/2000/svg">
<path fill-rule="evenodd" clip-rule="evenodd" d="M4.85599 4.27487L19.1535 0.122265C21.0749 -0.435803 23 0.986601 23 2.9644V4.27487H23.2C24.8802 4.27487 25.7202 4.27487 26.362 4.59777C26.9265 4.8818 27.3854 5.335 27.673 5.89244C28 6.52615 28 7.35574 28 9.0149V21.26C28 22.9191 28 23.7487 27.673 24.3824C27.3854 24.9399 26.9265 25.3931 26.362 25.6771C25.7202 26 24.8802 26 23.2 26H4.8C3.11984 26 2.27976 26 1.63803 25.6771C1.07354 25.3931 0.614601 24.9399 0.32698 24.3824C0 23.7487 0 22.9191 0 21.26V9.0149C0 7.35574 0 6.52615 0.32698 5.89244C0.614601 5.335 1.07354 4.8818 1.63803 4.59777C2.27976 4.27487 3.11984 4.27487 4.8 4.27487H4.85599ZM19.7178 2.01702C20.3583 1.831 21 2.30514 21 2.9644V4.27487H11.944L19.7178 2.01702ZM4.97681 6.24989C4.99194 6.25023 5.00711 6.25023 5.02232 6.24989H23.2C24.0731 6.24989 24.6076 6.25142 25.0075 6.28369C25.1938 6.29872 25.3065 6.3176 25.375 6.33352C25.4076 6.34109 25.4276 6.34744 25.4384 6.35125C25.4488 6.35492 25.454 6.35752 25.454 6.35752C25.6422 6.45219 25.7951 6.60326 25.891 6.78907C25.891 6.78907 25.8936 6.79418 25.8973 6.80445C25.9012 6.81514 25.9076 6.83492 25.9153 6.86708C25.9314 6.93467 25.9505 7.04598 25.9658 7.22996C25.9984 7.62488 26 8.15273 26 9.0149V13.6562H21.5C20.9477 13.6562 20.5 14.0983 20.5 14.6437C20.5 15.1891 20.9477 15.6312 21.5 15.6312H26V21.26C26 22.1221 25.9984 22.65 25.9658 23.0449C25.9505 23.2289 25.9314 23.3402 25.9153 23.4078C25.9076 23.44 25.9012 23.4597 25.8973 23.4704C25.8936 23.4807 25.891 23.4858 25.891 23.4858C25.7951 23.6716 25.6422 23.8227 25.454 23.9174C25.454 23.9174 25.4488 23.92 25.4384 23.9236C25.4276 23.9274 25.4076 23.9338 25.375 23.9414C25.3065 23.9573 25.1938 23.9762 25.0075 23.9912C24.6076 24.0235 24.0731 24.025 23.2 24.025H4.8C3.92692 24.025 3.39239 24.0235 2.99247 23.9912C2.80617 23.9762 2.69345 23.9573 2.625 23.9414C2.59244 23.9338 2.57241 23.9274 2.56158 23.9236C2.55118 23.92 2.54601 23.9174 2.54601 23.9174C2.35785 23.8227 2.20487 23.6716 2.10899 23.4858C2.10899 23.4858 2.10636 23.4807 2.10265 23.4704C2.09879 23.4597 2.09236 23.44 2.08469 23.4078C2.06857 23.3402 2.04945 23.2289 2.03423 23.0449C2.00156 22.65 2 22.1221 2 21.26V9.0149C2 8.15273 2.00156 7.62488 2.03423 7.22996C2.04945 7.04598 2.06857 6.93467 2.08469 6.86708C2.09236 6.83492 2.09879 6.81514 2.10265 6.80445C2.10636 6.79418 2.10899 6.78907 2.10899 6.78907C2.20487 6.60326 2.35785 6.45219 2.54601 6.35752C2.54601 6.35752 2.55118 6.35492 2.56158 6.35125C2.57241 6.34744 2.59244 6.34109 2.625 6.33352C2.69345 6.3176 2.80617 6.29872 2.99247 6.28369C3.39239 6.25142 3.92692 6.24989 4.8 6.24989H4.97681Z" fill="white"/>
</svg>
